%
M48
M72
T01C0.0280
T02C0.0350
T03C0.0400
T04C0.0420
T05C0.0520
T06C0.0600
T07C0.1250
T08C0.1300
%
T01
X6300Y3300
X10900Y8200
X17100Y12900
X18400Y12200
X18700Y13300
X19500Y14700
X19500Y15300
X20420Y14900
X19800Y16200
X19500Y17000
X19900Y17500
X21000Y17800
X20600Y18400
X21800Y18550
X22700Y20600
X22300Y21600
X21700Y21700
X21300Y20800
X22200Y23200
X20400Y24100
X19400Y24100
X18250Y24090
X17700Y23810
X18450Y23240
X16550Y23250
X16550Y22650
X15850Y23400
X15210Y23540
X14900Y22900
X13580Y21840
X13440Y22500
X13420Y23170
X13460Y24010
X13400Y24700
X13330Y25580
X13500Y26200
X14200Y27400
X12000Y27000
X11150Y27950
X11700Y25600
X11700Y25000
X9300Y23500
X9100Y20900
X8000Y19050
X7500Y19300
X8600Y18900
X9200Y18900
X11900Y18900
X11900Y18300
X11900Y17500
X13430Y17330
X13470Y18300
X11900Y19500
X13440Y19720
X13580Y21070
X15150Y21150
X15950Y21050
X16550Y21050
X17400Y21050
X17250Y20500
X17600Y20050
X16750Y20200
X18100Y20800
X17200Y18100
X16050Y17950
X15940Y16720
X14500Y16400
X15650Y14400
X18100Y14900
X20700Y13000
X20700Y12100
X22400Y12000
X23350Y12450
X23750Y11950
X23800Y12950
X25600Y11960
X26050Y12950
X26850Y12450
X28000Y13500
X26300Y15600
X25700Y15100
X24700Y15200
X25900Y16500
X26300Y17800
X28000Y18500
X28450Y19150
X29100Y19000
X28450Y19850
X27600Y20400
X26700Y20800
X27500Y21800
X28600Y22800
X27000Y23200
X26700Y19800
X30500Y17800
X31900Y18300
X32900Y18400
X33450Y17750
X34000Y18170
X33300Y19450
X35039Y21457
X35827Y22047
X35039Y22244
X35827Y20866
X36024Y20079
X36024Y19291
X36024Y18504
X36024Y17717
X36200Y16300
X36000Y15600
X33500Y15950
X33500Y15200
X33600Y14300
X33300Y12900
X34700Y13200
X31900Y14500
X34800Y10100
X35300Y7200
X38250Y5000
X39600Y4900
X35900Y4800
X30300Y6500
X29200Y6800
X22300Y14800
X11800Y21100
X5800Y23000
X11500Y15100
X22400Y24750
X21600Y25900
X24000Y27100
X24100Y31100
X25200Y31100
X26200Y31100
X30900Y31100
X31900Y31100
X32900Y31100
X30600Y27100
X37200Y25800
X39390Y23098
X39390Y22311
X39390Y21524
X39390Y20736
X39390Y19949
X39390Y19161
X39390Y18374
X39390Y17587
X15500Y30800
T02
X37251Y23099
X37251Y22312
X38038Y22312
X38038Y21525
X37251Y21525
X37251Y20737
X37251Y19950
X38038Y19950
X38038Y20737
X38038Y19162
X38038Y18375
X37251Y18375
X37251Y17588
X38038Y17588
X37251Y19162
X38038Y23099
T03
X39850Y16250
X39850Y15250
X39900Y13800
X39900Y12800
X34800Y5600
X34800Y4600
X33800Y4600
X33800Y5600
X32800Y5600
X32800Y4600
X31800Y4600
X31800Y5600
X30800Y5600
X30800Y4600
X30800Y2600
X31800Y2600
X32800Y2600
X33800Y2600
X33800Y1600
X32800Y1600
X31800Y1600
X30800Y1600
X34800Y1600
X34800Y2600
X27000Y9500
X26000Y9500
X25000Y9500
X24000Y9500
X24000Y10500
X25000Y10500
X26000Y10500
X27000Y10500
X23000Y10500
X23000Y9500
X21000Y9500
X20000Y9500
X19000Y9500
X19000Y10500
X20000Y10500
X21000Y10500
X18000Y10500
X17000Y10500
X16000Y10500
X15000Y10500
X15000Y9500
X16000Y9500
X17000Y9500
X18000Y9500
X13000Y9500
X12000Y9500
X11000Y9500
X10000Y9500
X10000Y10500
X11000Y10500
X12000Y10500
X13000Y10500
X9000Y10500
X9000Y9500
X8800Y12000
X8800Y13000
X8800Y14000
X8800Y15000
X6900Y15000
X6900Y14000
X6900Y13000
X6900Y12000
X5000Y9160
X5000Y8080
X5000Y7000
X5000Y5920
X5000Y4840
X4000Y5380
X4000Y6460
X4000Y7540
X4000Y8620
X6900Y17200
X6900Y18200
X7900Y18200
X7900Y17200
X5000Y17840
X5000Y18920
X5000Y20000
X5000Y21080
X5000Y22160
X4000Y21620
X4000Y20540
X4000Y19460
X4000Y18380
X6400Y20400
X7400Y20400
X8400Y20400
X7900Y21800
X6900Y21800
X6900Y22800
X7900Y22800
X8900Y22800
X8900Y21800
X11500Y31900
X12500Y31900
X14500Y31900
X15500Y31900
X17500Y31900
X18500Y31900
X20500Y31900
X21500Y31900
T04
X1500Y2500
X1500Y8000
X1500Y13500
X1500Y19500
X1500Y25500
X3700Y29800
X4700Y29800
X5700Y29800
X8500Y31500
X2500Y31500
X10000Y24800
X17500Y28500
X21000Y28500
X19500Y31900
X30000Y22500
X33000Y22500
X40000Y26000
X40000Y30000
X35360Y31620
X36100Y10900
X37100Y10900
X38100Y10900
X38100Y9300
X37100Y9300
X36100Y9300
X36100Y7700
X37100Y7700
X38100Y7700
X40500Y6000
X30500Y100
X29000Y0
X28000Y0
X28000Y1000
X28000Y2000
X29000Y2000
X29000Y1000
X29000Y3000
X28000Y3000
X28000Y4000
X29000Y4000
X29000Y5000
X29000Y6000
X28000Y6000
X28000Y5000
X27000Y5000
X27000Y6000
X26000Y6000
X26000Y5000
X25000Y5000
X25000Y6000
X24000Y6000
X24000Y5000
X24000Y4000
X25000Y4000
X26000Y4000
X27000Y4000
X27000Y3000
X26000Y3000
X25000Y3000
X24000Y3000
X24000Y2000
X24000Y1000
X25000Y1000
X25000Y2000
X26000Y2000
X26000Y1000
X27000Y1000
X27000Y2000
X27000Y0
X26000Y0
X25000Y0
X24000Y0
X23000Y0
X22000Y0
X21000Y0
X20000Y0
X19000Y0
X19000Y1000
X19000Y2000
X20000Y2000
X20000Y1000
X21000Y1000
X21000Y2000
X22000Y2000
X22000Y1000
X23000Y1000
X23000Y2000
X23000Y3000
X22000Y3000
X21000Y3000
X20000Y3000
X19000Y3000
X19000Y4000
X20000Y4000
X21000Y4000
X22000Y4000
X23000Y4000
X23000Y5000
X23000Y6000
X22000Y6000
X22000Y5000
X21000Y5000
X21000Y6000
X20000Y6000
X20000Y5000
X19000Y5000
X19000Y6000
X19000Y7000
X20000Y7000
X21000Y7000
X22000Y7000
X23000Y7000
X23000Y8000
X22000Y8000
X21000Y8000
X20000Y8000
X19000Y8000
X18000Y8000
X17000Y8000
X16000Y8000
X15000Y8000
X14000Y8000
X14000Y7000
X15000Y7000
X16000Y7000
X17000Y7000
X18000Y7000
X18000Y6000
X18000Y5000
X17000Y5000
X17000Y6000
X16000Y6000
X16000Y5000
X15000Y5000
X15000Y6000
X14000Y6000
X14000Y5000
X14000Y4000
X15000Y4000
X16000Y4000
X17000Y4000
X18000Y4000
X18000Y3000
X17000Y3000
X16000Y3000
X15000Y3000
X14000Y3000
X14000Y2000
X14000Y1000
X15000Y1000
X15000Y2000
X16000Y2000
X16000Y1000
X17000Y1000
X17000Y2000
X18000Y2000
X18000Y1000
X18000Y0
X17000Y0
X16000Y0
X15000Y0
X14000Y0
X13000Y0
X12000Y0
X11000Y0
X10000Y0
X10000Y1000
X10000Y2000
X11000Y2000
X11000Y1000
X12000Y1000
X12000Y2000
X13000Y2000
X13000Y1000
X13000Y3000
X12000Y3000
X11000Y3000
X10000Y3000
X11000Y4000
X12000Y4000
X13000Y4000
X13000Y5000
X13000Y6000
X12000Y6000
X12000Y5000
X11000Y5000
X12000Y7000
X13000Y7000
X13000Y8000
X12000Y8000
X14000Y9000
X22000Y9000
X24000Y8000
X25000Y8000
X26000Y8000
X27000Y8000
X27000Y7000
X26000Y7000
X25000Y7000
X24000Y7000
X8500Y3000
T05
X13450Y15938
X13450Y26962
X36220Y3700
X38780Y3700
T06
X25140Y16450
X17270Y16450
T07
X12750Y13550
X24751Y22549
X12750Y29350
X8500Y28950
X6610Y27670
X8500Y26490
X1300Y29700
X7700Y1200
X37750Y13550
X37900Y1100
X37750Y29350
T08
X4500Y24930
X4500Y15070
X4500Y11930
X4500Y2070
M30
